<svg width="449" height="150" viewBox="0 0 449 150" fill="none" xmlns="http://www.w3.org/2000/svg">
<path d="M92.8832 76.1276C92.9236 72.9976 93.7549 69.9287 95.3 67.2063C96.8451 64.484 99.0537 62.1967 101.72 60.5573C100.026 58.138 97.7915 56.1469 95.1934 54.7424C92.5953 53.3378 89.7055 52.5584 86.7535 52.466C80.4563 51.8051 74.3515 56.2341 71.1426 56.2341C67.8716 56.2341 62.931 52.5317 57.6107 52.6411C54.1695 52.7523 50.8157 53.753 47.8761 55.5457C44.9366 57.3384 42.5115 59.862 40.8373 62.8706C33.5848 75.4272 38.9945 93.8811 45.9418 104.031C49.4177 109.001 53.48 114.553 58.7954 114.356C63.9969 114.14 65.9395 111.039 72.2181 111.039C78.4385 111.039 80.2611 114.356 85.6844 114.231C91.2658 114.14 94.7824 109.238 98.1363 104.221C100.634 100.68 102.555 96.766 103.83 92.6244C100.588 91.253 97.8205 88.9573 95.8738 86.0237C93.9271 83.0901 92.887 79.6483 92.8832 76.1276Z" fill="white"/>
<path d="M82.6397 45.7908C85.6829 42.1376 87.1822 37.4419 86.8191 32.701C82.1698 33.1893 77.875 35.4114 74.7907 38.9245C73.2827 40.6408 72.1277 42.6374 71.3918 44.8003C70.6558 46.9632 70.3534 49.2499 70.5018 51.5298C72.8273 51.5537 75.128 51.0497 77.2304 50.0556C79.3329 49.0615 81.1824 47.6033 82.6397 45.7908Z" fill="white"/>
<path d="M158.634 101.774H140.883L136.621 114.36H129.102L145.915 67.7929H153.726L170.539 114.36H162.893L158.634 101.774ZM142.722 95.9656H156.792L149.856 75.5383H149.662L142.722 95.9656Z" fill="white"/>
<path d="M206.849 97.3865C206.849 107.937 201.202 114.716 192.68 114.716C190.522 114.828 188.375 114.331 186.485 113.281C184.596 112.23 183.041 110.669 181.998 108.776H181.837V125.592H174.868V80.4089H181.613V86.0559H181.742C182.833 84.1717 184.414 82.6184 186.318 81.5615C188.221 80.5046 190.376 79.9835 192.552 80.0537C201.169 80.0537 206.849 86.8652 206.849 97.3865ZM199.686 97.3865C199.686 90.5127 196.134 85.9937 190.714 85.9937C185.389 85.9937 181.807 90.6079 181.807 97.3865C181.807 104.227 185.389 108.809 190.714 108.809C196.134 108.809 199.686 104.323 199.686 97.3865Z" fill="white"/>
<path d="M244.217 97.3865C244.217 107.937 238.57 114.716 230.048 114.716C227.89 114.829 225.743 114.331 223.853 113.281C221.964 112.23 220.409 110.669 219.366 108.776H219.205V125.592H212.236V80.4089H218.981V86.0559H219.109C220.2 84.1717 221.782 82.6185 223.686 81.5615C225.589 80.5046 227.744 79.9835 229.92 80.0537C238.537 80.0537 244.217 86.8652 244.217 97.3865ZM237.054 97.3865C237.054 90.5127 233.502 85.9937 228.082 85.9937C222.757 85.9937 219.175 90.6079 219.175 97.3865C219.175 104.227 222.757 108.809 228.082 108.809C233.502 108.809 237.054 104.323 237.054 97.3865Z" fill="white"/>
<path d="M268.914 101.385C269.431 106.003 273.917 109.035 280.047 109.035C285.921 109.035 290.147 106.003 290.147 101.839C290.147 98.2249 287.598 96.0607 281.563 94.5775L275.528 93.1236C266.977 91.0582 263.007 87.0591 263.007 80.5699C263.007 72.5352 270.009 67.0164 279.952 67.0164C289.792 67.0164 296.537 72.5352 296.765 80.5699H289.73C289.308 75.9227 285.467 73.1175 279.853 73.1175C274.239 73.1175 270.397 75.9556 270.397 80.0865C270.397 83.3787 272.851 85.316 278.853 86.799L283.984 88.0588C293.538 90.3183 297.508 94.1563 297.508 100.968C297.508 109.68 290.568 115.136 279.531 115.136C269.203 115.136 262.231 109.808 261.78 101.385L268.914 101.385Z" fill="white"/>
<path d="M312.548 72.3743V80.4089H319.005V85.9277H312.548V104.645C312.548 107.552 313.841 108.907 316.679 108.907C317.446 108.894 318.211 108.84 318.972 108.746V114.232C317.696 114.47 316.399 114.578 315.101 114.554C308.227 114.554 305.546 111.973 305.546 105.388V85.9277H300.61V80.4089H305.546V72.3743H312.548Z" fill="white"/>
<path d="M322.744 97.3865C322.744 86.7041 329.035 79.9915 338.846 79.9915C348.69 79.9915 354.952 86.704 354.952 97.3865C354.952 108.098 348.723 114.782 338.846 114.782C328.973 114.782 322.744 108.098 322.744 97.3865ZM347.851 97.3865C347.851 90.0586 344.493 85.7337 338.846 85.7337C333.199 85.7337 329.845 90.0916 329.845 97.3865C329.845 104.744 333.199 109.036 338.846 109.036C344.493 109.036 347.851 104.744 347.851 97.3865Z" fill="white"/>
<path d="M360.698 80.4089H367.345V86.1877H367.506C367.955 84.3828 369.013 82.7879 370.5 81.6708C371.987 80.5537 373.814 79.9827 375.672 80.0536C376.475 80.0508 377.276 80.1381 378.06 80.3137V86.8322C377.046 86.5224 375.988 86.3802 374.929 86.4111C373.916 86.37 372.907 86.5485 371.97 86.9344C371.033 87.3202 370.191 87.9042 369.501 88.6463C368.811 89.3884 368.29 90.271 367.973 91.2335C367.657 92.196 367.552 93.2156 367.667 94.2223V114.36H360.698L360.698 80.4089Z" fill="white"/>
<path d="M410.191 104.388C409.254 110.552 403.251 114.781 395.572 114.781C385.695 114.781 379.565 108.164 379.565 97.5476C379.565 86.8982 385.728 79.9914 395.279 79.9914C404.672 79.9914 410.579 86.4441 410.579 96.7383V99.126H386.6V99.5471C386.489 100.797 386.646 102.055 387.059 103.24C387.472 104.424 388.132 105.507 388.996 106.417C389.86 107.326 390.908 108.042 392.069 108.515C393.231 108.989 394.48 109.21 395.733 109.164C397.38 109.318 399.033 108.937 400.445 108.076C401.858 107.216 402.955 105.922 403.574 104.388L410.191 104.388ZM386.633 94.2553H403.607C403.669 93.1319 403.499 92.0076 403.106 90.953C402.714 89.8985 402.108 88.9365 401.326 88.1274C400.544 87.3182 399.603 86.6795 398.562 86.2512C397.522 85.8229 396.404 85.6142 395.279 85.6384C394.144 85.6316 393.019 85.8497 391.969 86.28C390.919 86.7103 389.964 87.3443 389.16 88.1454C388.357 88.9465 387.719 89.8989 387.286 90.9476C386.852 91.9963 386.63 93.1205 386.633 94.2553Z" fill="white"/>
<path d="M141.848 32.7412C143.309 32.6364 144.775 32.8571 146.141 33.3875C147.506 33.9179 148.737 34.7447 149.744 35.8083C150.751 36.8719 151.51 38.1457 151.965 39.538C152.42 40.9303 152.561 42.4062 152.377 43.8594C152.377 51.0078 148.513 55.1169 141.848 55.1169H133.766V32.7412H141.848ZM137.241 51.9525H141.46C142.504 52.0149 143.549 51.8437 144.518 51.4514C145.488 51.0591 146.358 50.4556 147.064 49.6847C147.771 48.9138 148.297 47.995 148.604 46.9952C148.911 45.9954 148.992 44.9397 148.839 43.905C148.98 42.8744 148.892 41.8252 148.58 40.8327C148.269 39.8403 147.741 38.929 147.036 38.1643C146.331 37.3995 145.465 36.8002 144.501 36.4093C143.537 36.0185 142.499 35.8456 141.46 35.9033H137.241V51.9525Z" fill="white"/>
<path d="M171.42 50.5572C170.967 52.1005 169.986 53.4355 168.648 54.3285C167.311 55.2216 165.702 55.6159 164.103 55.4425C162.99 55.4718 161.885 55.2588 160.863 54.818C159.841 54.3773 158.927 53.7195 158.185 52.8902C157.443 52.0609 156.89 51.0801 156.565 50.0158C156.24 48.9514 156.15 47.8291 156.302 46.7267C156.154 45.6208 156.246 44.4961 156.57 43.4286C156.894 42.361 157.444 41.3757 158.182 40.5391C158.921 39.7026 159.83 39.0345 160.849 38.5799C161.868 38.1254 162.972 37.8951 164.088 37.9046C168.787 37.9046 171.621 41.1146 171.621 46.4171V47.58H159.697V47.7668C159.645 48.3864 159.723 49.0102 159.926 49.598C160.129 50.1858 160.453 50.7247 160.876 51.1802C161.299 51.6356 161.813 51.9976 162.385 52.2428C162.956 52.488 163.573 52.6112 164.195 52.6043C164.992 52.7 165.799 52.5564 166.515 52.1919C167.23 51.8274 167.821 51.2583 168.212 50.5571L171.42 50.5572ZM159.697 45.1154H168.226C168.268 44.5486 168.191 43.9794 168 43.4442C167.809 42.909 167.508 42.4197 167.117 42.0077C166.725 41.5958 166.252 41.2702 165.727 41.0521C165.202 40.8339 164.638 40.728 164.07 40.741C163.493 40.7338 162.921 40.842 162.388 41.0593C161.854 41.2766 161.369 41.5986 160.961 42.0063C160.554 42.4139 160.232 42.899 160.015 43.433C159.798 43.967 159.69 44.539 159.697 45.1154Z" fill="white"/>
<path d="M182.267 37.9047C186.064 37.9047 188.547 39.6716 188.873 42.6489H185.676C185.369 41.4093 184.156 40.6183 182.267 40.6183C180.406 40.6183 178.993 41.5009 178.993 42.8192C178.993 43.828 179.846 44.4635 181.677 44.8828L184.482 45.5328C187.694 46.2781 189.199 47.6587 189.199 50.1398C189.199 53.3185 186.237 55.4425 182.205 55.4425C178.187 55.4425 175.569 53.6279 175.272 50.636H178.608C178.896 51.3481 179.414 51.943 180.08 52.3252C180.746 52.7073 181.522 52.8547 182.281 52.7435C184.358 52.7435 185.834 51.8135 185.834 50.4638C185.834 49.4568 185.043 48.8049 183.351 48.4021L180.406 47.7191C177.195 46.9592 175.708 45.5182 175.708 43.0059C175.708 40.0122 178.451 37.9047 182.267 37.9047Z" fill="white"/>
<path d="M204.745 43.7494C204.532 42.8738 204.013 42.1032 203.282 41.5772C202.55 41.0512 201.654 40.8045 200.757 40.8819C197.966 40.8819 196.26 43.0206 196.26 46.6186C196.26 50.2789 197.981 52.4652 200.757 52.4652C201.646 52.5682 202.541 52.3429 203.276 51.8317C204.01 51.3205 204.533 50.5586 204.745 49.6893H207.986C207.771 51.3992 206.898 52.9577 205.55 54.0325C204.203 55.1072 202.49 55.6132 200.775 55.4425C199.646 55.4782 198.523 55.2667 197.484 54.8229C196.445 54.3791 195.516 53.7138 194.761 52.8733C194.006 52.0329 193.444 51.0377 193.114 49.9573C192.784 48.877 192.694 47.7375 192.85 46.6188C192.702 45.5082 192.798 44.3787 193.131 43.309C193.464 42.2393 194.027 41.2552 194.78 40.4254C195.532 39.5956 196.457 38.9402 197.49 38.5048C198.522 38.0695 199.637 37.8647 200.757 37.9048C202.486 37.7455 204.208 38.2672 205.558 39.3588C206.909 40.4503 207.779 42.0256 207.986 43.7495L204.745 43.7494Z" fill="white"/>
<path d="M211.293 50.3412C211.293 47.3016 213.556 45.5493 217.573 45.3003L222.147 45.0366V43.5791C222.147 41.7957 220.968 40.7886 218.69 40.7886C216.83 40.7886 215.541 41.4716 215.171 42.6654H211.945C212.285 39.765 215.013 37.9047 218.844 37.9047C223.077 37.9047 225.465 40.0122 225.465 43.5791V55.1166H222.257V52.7436H221.993C221.458 53.5948 220.707 54.2887 219.816 54.7545C218.925 55.2203 217.926 55.4413 216.921 55.3948C216.213 55.4685 215.496 55.3929 214.818 55.1728C214.14 54.9527 213.516 54.593 212.986 54.1168C212.456 53.6407 212.031 53.0587 211.739 52.4084C211.448 51.7581 211.296 51.0539 211.293 50.3412ZM222.147 48.8983V47.4866L218.024 47.7503C215.698 47.9059 214.644 48.6969 214.644 50.1855C214.644 51.7053 215.962 52.5897 217.775 52.5897C218.306 52.6435 218.843 52.5898 219.353 52.432C219.863 52.2742 220.336 52.0153 220.744 51.6709C221.151 51.3265 221.486 50.9036 221.727 50.4273C221.968 49.9509 222.111 49.431 222.147 48.8983ZM216.844 35.4071L220.737 30.0732H224.645L220.287 35.4071H216.844Z" fill="white"/>
<path d="M230.684 38.2306H233.892V40.8197H234.141C234.5 39.9209 235.134 39.1591 235.954 38.6435C236.773 38.128 237.734 37.8854 238.7 37.9504C239.199 37.9437 239.698 37.9904 240.187 38.0896V41.3783C239.575 41.2476 238.952 41.1802 238.326 41.1769C237.777 41.1276 237.223 41.1937 236.7 41.3712C236.178 41.5486 235.698 41.8334 235.292 42.2073C234.886 42.5811 234.563 43.0358 234.343 43.542C234.124 44.0482 234.012 44.5948 234.016 45.1466V55.1167H230.684L230.684 38.2306Z" fill="white"/>
<path d="M243.248 56.8067H246.66C246.942 58.0316 248.351 58.8227 250.6 58.8227C253.376 58.8227 255.02 57.5043 255.02 55.2722V52.0313H254.771C254.248 52.9385 253.485 53.6835 252.565 54.1841C251.646 54.6846 250.606 54.9212 249.56 54.8676C245.25 54.8676 242.582 51.5351 242.582 46.4795C242.582 41.3307 245.279 37.9505 249.593 37.9505C250.665 37.9131 251.726 38.1711 252.661 38.6962C253.597 39.2212 254.369 39.9932 254.896 40.9278H255.159V38.2306H258.353V55.2556C258.353 59.1173 255.328 61.5673 250.552 61.5673C246.334 61.5675 243.604 59.6759 243.248 56.8067ZM255.082 46.463C255.082 43.0993 253.343 40.9442 250.505 40.9442C247.637 40.9442 246.026 43.0994 246.026 46.463C246.026 49.8285 247.637 51.9837 250.505 51.9837C253.361 51.9836 255.082 49.845 255.082 46.463Z" fill="white"/>
<path d="M262.699 50.3412C262.699 47.3016 264.963 45.5493 268.98 45.3003L273.554 45.0366V43.5791C273.554 41.7957 272.375 40.7886 270.097 40.7886C268.237 40.7886 266.948 41.4716 266.578 42.6654H263.351C263.692 39.765 266.42 37.9047 270.251 37.9047C274.484 37.9047 276.872 40.0122 276.872 43.5791V55.1166H273.664V52.7436H273.4C272.865 53.5948 272.113 54.2887 271.222 54.7545C270.331 55.2203 269.333 55.4413 268.328 55.3948C267.619 55.4685 266.903 55.3929 266.225 55.1728C265.547 54.9527 264.923 54.593 264.393 54.1168C263.862 53.6407 263.438 53.0587 263.146 52.4084C262.854 51.7581 262.702 51.0539 262.699 50.3412ZM273.554 48.8983V47.4866L269.43 47.7503C267.105 47.9059 266.05 48.6969 266.05 50.1855C266.05 51.7053 267.369 52.5897 269.182 52.5897C269.713 52.6435 270.249 52.5898 270.759 52.432C271.269 52.2742 271.742 52.0153 272.15 51.6709C272.558 51.3265 272.893 50.9036 273.134 50.4273C273.375 49.9509 273.518 49.431 273.554 48.8983Z" fill="white"/>
<path d="M282.244 31.6388H285.577V55.1165H282.244V31.6388Z" fill="white"/>
<path d="M290.209 46.6663C290.103 45.5566 290.23 44.437 290.582 43.3792C290.934 42.3214 291.503 41.3489 292.253 40.524C293.003 39.699 293.916 39.0399 294.936 38.5889C295.955 38.1378 297.058 37.9049 298.173 37.9049C299.287 37.9049 300.39 38.1378 301.409 38.5889C302.429 39.0399 303.343 39.699 304.092 40.524C304.842 41.3489 305.411 42.3214 305.763 43.3792C306.115 44.437 306.242 45.5566 306.136 46.6663C306.244 47.7771 306.119 48.8983 305.768 49.9578C305.417 51.0172 304.848 51.9915 304.098 52.8181C303.348 53.6447 302.433 54.3052 301.413 54.7572C300.392 55.2092 299.289 55.4427 298.173 55.4427C297.056 55.4427 295.953 55.2092 294.932 54.7572C293.912 54.3052 292.997 53.6447 292.247 52.8181C291.497 51.9915 290.928 51.0172 290.578 49.9578C290.227 48.8983 290.101 47.7771 290.209 46.6663ZM302.708 46.6663C302.708 43.006 301.064 40.8655 298.178 40.8655C295.281 40.8655 293.652 43.006 293.652 46.6663C293.652 50.3559 295.281 52.4799 298.178 52.4799C301.064 52.4799 302.708 50.3412 302.708 46.6663Z" fill="white"/>
<path d="M334.049 50.5572C333.596 52.1005 332.615 53.4355 331.277 54.3285C329.94 55.2216 328.331 55.6159 326.732 55.4425C325.619 55.4718 324.514 55.2588 323.492 54.818C322.47 54.3773 321.556 53.7195 320.814 52.8902C320.072 52.0609 319.519 51.0801 319.194 50.0158C318.869 48.9514 318.779 47.8291 318.931 46.7267C318.783 45.6208 318.874 44.4961 319.199 43.4286C319.523 42.361 320.073 41.3757 320.811 40.5391C321.549 39.7026 322.459 39.0345 323.478 38.5799C324.497 38.1254 325.601 37.8951 326.717 37.9046C331.415 37.9046 334.25 41.1146 334.25 46.4171V47.58H322.326V47.7668C322.274 48.3864 322.352 49.0102 322.555 49.598C322.758 50.1858 323.081 50.7247 323.505 51.1802C323.928 51.6356 324.442 51.9976 325.014 52.2428C325.585 52.488 326.201 52.6112 326.823 52.6043C327.62 52.7 328.428 52.5564 329.143 52.1919C329.859 51.8274 330.449 51.2583 330.841 50.5571L334.049 50.5572ZM322.326 45.1154H330.855C330.897 44.5486 330.82 43.9794 330.629 43.4442C330.438 42.909 330.137 42.4197 329.745 42.0077C329.354 41.5958 328.881 41.2702 328.356 41.0521C327.831 40.8339 327.267 40.728 326.699 40.741C326.122 40.7337 325.55 40.842 325.016 41.0593C324.482 41.2766 323.997 41.5985 323.59 42.0062C323.182 42.4139 322.861 42.899 322.644 43.433C322.427 43.967 322.319 44.539 322.326 45.1154Z" fill="white"/>
<path d="M338.725 38.2306H341.933V40.9131H342.182C342.605 39.9496 343.317 39.142 344.22 38.6027C345.124 38.0634 346.173 37.8194 347.221 37.9046C348.043 37.8429 348.868 37.9667 349.635 38.2671C350.402 38.5675 351.092 39.0366 351.653 39.6398C352.215 40.2429 352.633 40.9647 352.878 41.7515C353.122 42.5383 353.187 43.3701 353.066 44.1851V55.1164H349.733V45.022C349.733 42.3084 348.554 40.9589 346.09 40.9589C345.532 40.9329 344.975 41.0278 344.457 41.2372C343.939 41.4465 343.473 41.7654 343.09 42.1718C342.707 42.5783 342.417 43.0627 342.238 43.5919C342.06 44.1212 341.999 44.6827 342.058 45.238V55.1166H338.725V38.2306Z" fill="white"/>
<path d="M381.659 50.5572C381.207 52.1005 380.226 53.4355 378.888 54.3285C377.55 55.2216 375.941 55.6159 374.343 55.4425C373.23 55.4718 372.124 55.2588 371.103 54.818C370.081 54.3773 369.167 53.7195 368.425 52.8902C367.683 52.0609 367.13 51.0801 366.805 50.0158C366.48 48.9514 366.39 47.8291 366.542 46.7267C366.394 45.6208 366.485 44.4961 366.81 43.4286C367.134 42.361 367.684 41.3757 368.422 40.5391C369.16 39.7026 370.07 39.0345 371.089 38.5799C372.108 38.1254 373.212 37.8951 374.328 37.9046C379.026 37.9046 381.861 41.1146 381.861 46.4171V47.58H369.937V47.7668C369.885 48.3864 369.963 49.0102 370.166 49.598C370.369 50.1858 370.692 50.7247 371.116 51.1802C371.539 51.6356 372.053 51.9976 372.624 52.2428C373.196 52.488 373.812 52.6112 374.434 52.6043C375.231 52.7 376.039 52.5564 376.754 52.1919C377.47 51.8274 378.06 51.2583 378.451 50.5571L381.659 50.5572ZM369.937 45.1154H378.466C378.508 44.5486 378.431 43.9794 378.24 43.4442C378.049 42.909 377.748 42.4197 377.356 42.0077C376.965 41.5958 376.492 41.2702 375.967 41.0521C375.442 40.8339 374.878 40.728 374.309 40.741C373.733 40.7337 373.161 40.842 372.627 41.0592C372.093 41.2765 371.608 41.5985 371.201 42.0062C370.793 42.4139 370.472 42.899 370.255 43.433C370.037 43.967 369.929 44.539 369.937 45.1154Z" fill="white"/>
<path d="M386.49 31.6388H389.822V55.1165H386.49V31.6388Z" fill="white"/>
</svg>
